<svg width="16" height="16" viewBox="0 0 16 16" fill="none" xmlns="http://www.w3.org/2000/svg">
<path d="M12.8615 3.13853C12.9899 3.267 13.0335 3.4577 12.9734 3.62919L9.85995 12.5249C9.6477 13.1314 8.80304 13.1658 8.54212 12.5787L7.27955 9.73796L10.8092 5.52389C10.9945 5.30261 10.6974 5.00543 10.4761 5.19078L6.26196 8.72044L3.42131 7.45789C2.83419 7.19697 2.86864 6.35233 3.47507 6.14008L12.3708 3.02657C12.5423 2.96655 12.733 3.01007 12.8615 3.13853Z" fill="#9151BE"/>
<path d="M13 1C14.1046 1 15 1.89543 15 3V13C15 14.1046 14.1046 15 13 15H3C1.89543 15 1 14.1046 1 13V3C1 1.89543 1.89543 1 3 1H13ZM3 2C2.44772 2 2 2.44772 2 3V13C2 13.5523 2.44772 14 3 14H13C13.5523 14 14 13.5523 14 13V3C14 2.44772 13.5523 2 13 2H3Z" fill="#D9D9D9"/>
</svg>
