<svg width="16" height="16" viewBox="0 0 16 16" fill="none" xmlns="http://www.w3.org/2000/svg">
<path d="M1 1V5H3V3H5V1H1ZM11 1V3H13V5H15V1H11ZM1 11V15H5V13H3V11H1ZM13 11V13H11V15H15V11H13Z" fill="#9151BE"/>
<path d="M11.8753 4.12468C11.9909 4.2403 12.0301 4.41193 11.9761 4.56627L9.17396 12.5724C8.98293 13.1182 8.22273 13.1492 7.98791 12.6208L6.8516 10.0642L10.0283 6.2715C10.1951 6.07235 9.92764 5.80488 9.72849 5.9717L5.93576 9.1484L3.37918 8.0121C2.85077 7.77728 2.88178 7.0171 3.42757 6.82607L11.4337 4.02391C11.5881 3.96989 11.7597 4.00906 11.8753 4.12468Z" fill="#9151BE"/>
</svg>
