<svg width="16" height="16" viewBox="0 0 16 16" fill="none" xmlns="http://www.w3.org/2000/svg">
<path d="M13 1C14.1046 1 15 1.89543 15 3V13C15 14.1046 14.1046 15 13 15H3C1.89543 15 1 14.1046 1 13V3C1 1.89543 1.89543 1 3 1H13ZM3 2C2.44772 2 2 2.44772 2 3V13C2 13.5523 2.44772 14 3 14H13C13.5523 14 14 13.5523 14 13V3C14 2.44772 13.5523 2 13 2H3Z" fill="#D9D9D9"/>
<path d="M3.395 5.21677C3.27615 5.27616 3.17623 5.36752 3.10645 5.48058C3.03667 5.59364 2.99981 5.72392 3 5.85678V10.1425C2.99994 10.2752 3.03686 10.4054 3.10664 10.5183C3.17641 10.6312 3.27626 10.7225 3.395 10.7818L7.68071 12.9247C7.77986 12.9742 7.88917 13 8 13C8.11083 13 8.22014 12.9742 8.31929 12.9247L12.605 10.7818C12.7237 10.7225 12.8236 10.6312 12.8934 10.5183C12.9631 10.4054 13.0001 10.2752 13 10.1425V5.85678C12.9999 5.72416 12.9629 5.59418 12.8932 5.4814C12.8234 5.36861 12.7236 5.27748 12.605 5.2182L8.31929 3.07533C8.22014 3.02579 8.11083 3 8 3C7.88917 3 7.77986 3.02579 7.68071 3.07533L3.395 5.21677ZM8 4.50248L10.6886 5.84678L8 7.19107L5.31143 5.84678L8 4.50248ZM4.42857 7.0025L7.28571 8.43107V11.1211L4.42857 9.69251V7.0025Z" fill="#9151BE"/>
</svg>
