<svg width="16" height="16" viewBox="0 0 16 16" fill="none" xmlns="http://www.w3.org/2000/svg">
<path d="M1.553 4.104C1.38662 4.18714 1.24672 4.31504 1.14903 4.47332C1.05134 4.63161 0.999728 4.814 1 5V11C0.999914 11.1858 1.05161 11.368 1.14929 11.5261C1.24697 11.6842 1.38677 11.8119 1.553 11.895L7.553 14.895C7.6918 14.9644 7.84484 15.0005 8 15.0005C8.15517 15.0005 8.3082 14.9644 8.447 14.895L14.447 11.895C14.6132 11.8119 14.753 11.6842 14.8507 11.5261C14.9484 11.368 15.0001 11.1858 15 11V5C14.9999 4.81434 14.9481 4.63237 14.8504 4.47447C14.7528 4.31658 14.6131 4.18899 14.447 4.106L8.447 1.106C8.3082 1.03664 8.15517 1.00053 8 1.00053C7.84484 1.00053 7.6918 1.03664 7.553 1.106L1.553 4.104ZM8 3.104L11.764 4.986L8 6.868L4.236 4.986L8 3.104ZM3 6.604L7 8.604V12.37L3 10.37V6.604Z" fill="#9151BE"/>
</svg>
