<svg width="16" height="16" viewBox="0 0 16 16" fill="none" xmlns="http://www.w3.org/2000/svg">
<path d="M3 1C2.46957 1 1.96086 1.21071 1.58579 1.58579C1.21071 1.96086 1 2.46957 1 3V13C1 13.5304 1.21071 14.0391 1.58579 14.4142C1.96086 14.7893 2.46957 15 3 15H13C13.5304 15 14.0391 14.7893 14.4142 14.4142C14.7893 14.0391 15 13.5304 15 13V3C15 2.46957 14.7893 1.96086 14.4142 1.58579C14.0391 1.21071 13.5304 1 13 1H3ZM3 3H13V13H3V3ZM4 4V6H6V4H4ZM7 4V6H9V4H7ZM10 4V6H12V4H10ZM4 7V9H6V7H4ZM7 7V9H9V7H7ZM10 7V9H12V7H10ZM4 10V12H6V10H4ZM7 10V12H9V10H7ZM10 10V12H12V10H10Z" fill="#9151BE"/>
<path d="M13 1C14.1046 1 15 1.89543 15 3V13C15 14.1046 14.1046 15 13 15H3C1.89543 15 1 14.1046 1 13V3C1 1.89543 1.89543 1 3 1H13ZM3 3V13H13V3H3Z" fill="#8EEF97"/>
</svg>
