<svg width="16" height="16" viewBox="0 0 16 16" fill="none" xmlns="http://www.w3.org/2000/svg">
<mask id="mask0_78_14" style="mask-type:alpha" maskUnits="userSpaceOnUse" x="1" y="1" width="14" height="14">
<rect x="1" y="1" width="14" height="14" rx="2" fill="#D9D9D9"/>
</mask>
<g mask="url(#mask0_78_14)">
<path d="M17 20L10.8889 9L6 20H17Z" fill="#FC7F7F"/>
<path d="M6.06667 5L-3 21H14L6.06667 5Z" fill="#FC7F7F"/>
<circle cx="11" cy="6" r="1" fill="#FC7F7F"/>
</g>
<path d="M13 1C14.1046 1 15 1.89543 15 3V13C15 14.1046 14.1046 15 13 15H3C1.89543 15 1 14.1046 1 13V3C1 1.89543 1.89543 1 3 1H13ZM3 3V13H13V3H3Z" fill="#FC7F7F"/>
</svg>
