<svg width="16" height="16" viewBox="0 0 16 16" fill="none" xmlns="http://www.w3.org/2000/svg">
<rect x="1" y="1" width="7" height="7" rx="2" fill="#D39D32"/>
<rect x="6" y="6" width="9" height="9" rx="2" fill="#D39D32"/>
<path d="M12.5 2H9.5C9.22386 2 9 2.22386 9 2.5C9 2.77614 9.22386 3 9.5 3H12C12.5523 3 13 3.44772 13 4V4.5C13 4.77614 13.2239 5 13.5 5C13.7761 5 14 4.77614 14 4.5V3.5C14 2.67157 13.3284 2 12.5 2Z" fill="#D39D32"/>
<path d="M7 8.5L7 11.5C7 11.7761 6.77614 12 6.5 12C6.22386 12 6 11.7761 6 11.5L6 9C6 8.44772 5.55228 8 5 8L4.5 8C4.22386 8 4 7.77614 4 7.5C4 7.22386 4.22386 7 4.5 7L5.5 7C6.32843 7 7 7.67157 7 8.5Z" fill="#D39D32"/>
<path d="M8.5 7L11.5 7C11.7761 7 12 6.77614 12 6.5C12 6.22386 11.7761 6 11.5 6L9 6C8.44772 6 8 5.55228 8 5L8 4.5C8 4.22386 7.77614 4 7.5 4C7.22386 4 7 4.22386 7 4.5L7 5.5C7 6.32843 7.67157 7 8.5 7Z" fill="#D39D32"/>
<path d="M2 12.5L2 9.5C2 9.22386 2.22386 9 2.5 9C2.77614 9 3 9.22386 3 9.5L3 12C3 12.5523 3.44772 13 4 13L4.5 13C4.77614 13 5 13.2239 5 13.5C5 13.7761 4.77614 14 4.5 14L3.5 14C2.67157 14 2 13.3284 2 12.5Z" fill="#D39D32"/>
</svg>
