<svg width="16" height="16" viewBox="0 0 16 16" fill="none" xmlns="http://www.w3.org/2000/svg">
<path d="M13 1C14.1046 1 15 1.89543 15 3V13C15 14.1046 14.1046 15 13 15H3C1.89543 15 1 14.1046 1 13V3C1 1.89543 1.89543 1 3 1H13ZM3 2C2.44772 2 2 2.44772 2 3V13C2 13.5523 2.44772 14 3 14H13C13.5523 14 14 13.5523 14 13V3C14 2.44772 13.5523 2 13 2H3Z" fill="#D39D32"/>
<rect x="3" y="3" width="10" height="2" fill="#8EEF97"/>
<rect x="3" y="11" width="8" height="2" rx="1" fill="#8EEF97"/>
<rect x="7" y="7" width="4" height="2" rx="1" fill="#8EEF97"/>
<rect x="9" y="11" width="4" height="2" fill="#8EEF97"/>
<rect x="10" y="7" width="3" height="2" fill="#8EEF97"/>
<rect x="7" y="5" width="2" height="3" fill="#8EEF97"/>
<rect x="3" y="4" width="2" height="8" fill="#8EEF97"/>
</svg>
