<svg width="16" height="16" viewBox="0 0 16 16" fill="none" xmlns="http://www.w3.org/2000/svg">
<rect x="1" y="1" width="7" height="7" rx="2" fill="#CBAE7F"/>
<rect x="6" y="6" width="9" height="9" rx="2" fill="#CBAE7F"/>
<path d="M7 8.5L7 11.5C7 11.7761 6.77614 12 6.5 12C6.22386 12 6 11.7761 6 11.5L6 9C6 8.44772 5.55228 8 5 8L4.5 8C4.22386 8 4 7.77614 4 7.5C4 7.22386 4.22386 7 4.5 7L5.5 7C6.32843 7 7 7.67157 7 8.5Z" fill="#CBAE7F"/>
<path d="M8.5 7L11.5 7C11.7761 7 12 6.77614 12 6.5C12 6.22386 11.7761 6 11.5 6L9 6C8.44772 6 8 5.55228 8 5L8 4.5C8 4.22386 7.77614 4 7.5 4C7.22386 4 7 4.22386 7 4.5L7 5.5C7 6.32843 7.67157 7 8.5 7Z" fill="#CBAE7F"/>
</svg>
