<svg width="16" height="16" viewBox="0 0 16 16" fill="none" xmlns="http://www.w3.org/2000/svg">
<path d="M5 12V11.5C5 11.2239 5.22386 11 5.5 11C5.77614 11 6 10.7761 6 10.5C6 10.2239 5.77614 10 5.5 10C5.22386 10 5 9.77614 5 9.5C5 9.22386 4.77614 9 4.5 9C4.22386 9 4 9.22386 4 9.5C4 9.77614 3.77614 10 3.5 10C3.22386 10 3 10.2239 3 10.5C3 10.7761 3.22386 11 3.5 11C3.77614 11 4 11.2239 4 11.5V13C4 13.5523 4.44772 14 5 14H6.5C6.77614 14 7 13.7761 7 13.5C7 13.2239 6.77614 13 6.5 13H6C5.44772 13 5 12.5523 5 12Z" fill="#D39D32"/>
<path d="M11 4L11 4.5C11 4.77614 10.7761 5 10.5 5C10.2239 5 10 5.22386 10 5.5C10 5.77614 10.2239 6 10.5 6C10.7761 6 11 6.22386 11 6.5C11 6.77614 11.2239 7 11.5 7C11.7761 7 12 6.77614 12 6.5C12 6.22386 12.2239 6 12.5 6C12.7761 6 13 5.77614 13 5.5C13 5.22386 12.7761 5 12.5 5C12.2239 5 12 4.77614 12 4.5L12 3C12 2.44772 11.5523 2 11 2L9.5 2C9.22386 2 9 2.22386 9 2.5C9 2.77614 9.22386 3 9.5 3L10 3C10.5523 3 11 3.44772 11 4Z" fill="#D39D32"/>
<rect x="2" y="1" width="6" height="6" rx="2" fill="#D39D32"/>
<rect x="8" y="9" width="6" height="6" rx="2" fill="#D39D32"/>
</svg>
