<svg width="16" height="16" viewBox="0 0 16 16" fill="none" xmlns="http://www.w3.org/2000/svg">
<path d="M1 1V5H3V3H5V1H1ZM11 1V3H13V5H15V1H11ZM1 11V15H5V13H3V11H1ZM13 11V13H11V15H15V11H13Z" fill="#FC7F7F"/>
<path d="M7.5 4.5V6.0665L6.7775 5.584L6.2225 6.416L7.7225 7.416C7.80467 7.47082 7.90123 7.50007 8 7.50007C8.09877 7.50007 8.19534 7.47082 8.2775 7.416L9.7775 6.416L9.2225 5.584L8.5 6.0665V4.5H7.5ZM6.75 8.5C6.55109 8.5 6.36032 8.57902 6.21967 8.71967C6.07902 8.86032 6 9.05109 6 9.25V10H5V11H11V10H10V9.25C10 9.05109 9.92098 8.86032 9.78033 8.71967C9.63968 8.57902 9.44891 8.5 9.25 8.5H6.75Z" fill="#72D7E7"/>
</svg>
