<svg width="16" height="16" viewBox="0 0 16 16" fill="none" xmlns="http://www.w3.org/2000/svg">
<path d="M1 1V5H3V3H5V1H1ZM11 1V3H13V5H15V1H11ZM1 11V15H5V13H3V11H1ZM13 11V13H11V15H15V11H13Z" fill="#FC7F7F"/>
<path d="M4.316 5.77342C4.22092 5.82093 4.14098 5.89401 4.08516 5.98446C4.02934 6.07491 3.99984 6.17913 4 6.28542V9.71401C3.99995 9.8202 4.02949 9.9243 4.08531 10.0146C4.14113 10.105 4.22101 10.178 4.316 10.2254L7.74457 11.9397C7.82389 11.9794 7.91133 12 8 12C8.08867 12 8.17611 11.9794 8.25543 11.9397L11.684 10.2254C11.779 10.178 11.8589 10.105 11.9147 10.0146C11.9705 9.9243 12 9.8202 12 9.71401V6.28542C11.9999 6.17933 11.9704 6.07534 11.9145 5.98512C11.8587 5.89489 11.7789 5.82198 11.684 5.77456L8.25543 4.06027C8.17611 4.02063 8.08867 4 8 4C7.91133 4 7.82389 4.02063 7.74457 4.06027L4.316 5.77342ZM8 5.20199L10.1509 6.27742L8 7.35285L5.84914 6.27742L8 5.20199ZM5.14286 7.202L7.42857 8.34486V10.4969L5.14286 9.35401V7.202Z" fill="#FC7F7F"/>
</svg>
