<svg width="16" height="16" viewBox="0 0 16 16" fill="none" xmlns="http://www.w3.org/2000/svg">
<path d="M1 1V5H3V3H5V1H1ZM11 1V3H13V5H15V1H11ZM1 11V15H5V13H3V11H1ZM13 11V13H11V15H15V11H13Z" fill="#FC7F7F"/>
<path d="M8 3C10.7614 3.00002 13 5.01473 13 7.5C13 9.98527 10.7614 12 8 12C7.32119 12 6.67412 11.8778 6.08398 11.6572L4.52637 12.333C4.32608 12.4195 4.1152 12.2249 4.18359 12.0176C4.29622 11.6762 4.43539 11.241 4.58301 10.7842C3.60908 9.96309 3 8.79581 3 7.5C3 5.01472 5.23858 3 8 3ZM5.5 6.4375C4.98227 6.43753 4.5625 6.85726 4.5625 7.375C4.56255 7.8927 4.9823 8.31247 5.5 8.3125C6.01772 8.31249 6.43745 7.89271 6.4375 7.375C6.4375 6.85725 6.01775 6.43751 5.5 6.4375ZM8 6.4375C7.48227 6.43753 7.0625 6.85726 7.0625 7.375C7.06255 7.8927 7.4823 8.31247 8 8.3125C8.51773 8.3125 8.93745 7.89272 8.9375 7.375C8.9375 6.85724 8.51776 6.4375 8 6.4375ZM10.5 6.4375C9.98227 6.43753 9.5625 6.85726 9.5625 7.375C9.56255 7.8927 9.9823 8.31247 10.5 8.3125C11.0177 8.31248 11.4375 7.8927 11.4375 7.375C11.4375 6.85726 11.0177 6.43752 10.5 6.4375Z" fill="#72D7E7"/>
</svg>
